<svg width="18" height="22" viewBox="0 0 18 22" fill="none" xmlns="http://www.w3.org/2000/svg">
    <path d="M17 21L16.6947 21.396C16.8456 21.5123 17.0496 21.5328 17.2206 21.4487C17.3917 21.3646 17.5 21.1906 17.5 21H17ZM14.1471 18.8003L14.4524 18.4043C14.2611 18.2569 13.9918 18.2672 13.8124 18.4288L14.1471 18.8003ZM11.7059 21L11.388 21.3859C11.5791 21.5434 11.8567 21.5372 12.0406 21.3714L11.7059 21ZM9 18.7713L9.31788 18.3854C9.13324 18.2333 8.86676 18.2333 8.68212 18.3854L9 18.7713ZM6.29412 21L5.95941 21.3714C6.14335 21.5372 6.42088 21.5434 6.61199 21.3859L6.29412 21ZM3.85294 18.8003L4.18765 18.4288C4.00823 18.2672 3.7389 18.2569 3.54764 18.4043L3.85294 18.8003ZM1 21H0.5C0.5 21.1906 0.608348 21.3646 0.779378 21.4487C0.950408 21.5328 1.15437 21.5123 1.3053 21.396L1 21ZM3.82353 15.1744C3.54739 15.1744 3.32353 15.3982 3.32353 15.6744C3.32353 15.9505 3.54739 16.1744 3.82353 16.1744V15.1744ZM14.1765 16.1744C14.4526 16.1744 14.6765 15.9505 14.6765 15.6744C14.6765 15.3982 14.4526 15.1744 14.1765 15.1744V16.1744ZM3.82353 12.1643C3.54739 12.1643 3.32353 12.3881 3.32353 12.6643C3.32353 12.9404 3.54739 13.1643 3.82353 13.1643V12.1643ZM14.1765 13.1643C14.4526 13.1643 14.6765 12.9404 14.6765 12.6643C14.6765 12.3881 14.4526 12.1643 14.1765 12.1643V13.1643ZM7.5 10.1541C7.77614 10.1541 8 9.93027 8 9.65412C8 9.37798 7.77614 9.15412 7.5 9.15412V10.1541ZM3.82353 9.15412C3.54739 9.15412 3.32353 9.37798 3.32353 9.65412C3.32353 9.93027 3.54739 10.1541 3.82353 10.1541V9.15412ZM2.76471 1.5H15.2353V0.5H2.76471V1.5ZM15.2353 1.5C15.9373 1.5 16.5 2.06515 16.5 2.73661H17.5C17.5 1.4978 16.4744 0.5 15.2353 0.5V1.5ZM16.5 2.73661V21H17.5V2.73661H16.5ZM17.3053 20.604L14.4524 18.4043L13.8418 19.1963L16.6947 21.396L17.3053 20.604ZM13.8124 18.4288L11.3712 20.6286L12.0406 21.3714L14.4818 19.1717L13.8124 18.4288ZM12.0238 20.6141L9.31788 18.3854L8.68212 19.1573L11.388 21.3859L12.0238 20.6141ZM8.68212 18.3854L5.97624 20.6141L6.61199 21.3859L9.31788 19.1573L8.68212 18.3854ZM6.62882 20.6286L4.18765 18.4288L3.51824 19.1717L5.95941 21.3714L6.62882 20.6286ZM3.54764 18.4043L0.694697 20.604L1.3053 21.396L4.15824 19.1963L3.54764 18.4043ZM1.5 21V2.73661H0.5V21H1.5ZM1.5 2.73661C1.5 2.06515 2.06267 1.5 2.76471 1.5V0.5C1.52557 0.5 0.5 1.4978 0.5 2.73661H1.5ZM9 4.16281C9.91701 4.16281 10.6471 4.88154 10.6471 5.74674H11.6471C11.6471 4.29646 10.4359 3.16281 9 3.16281V4.16281ZM10.6471 5.74674C10.6471 6.62081 9.90792 7.35962 9 7.35962V8.35962C10.445 8.35962 11.6471 7.18816 11.6471 5.74674H10.6471ZM9 7.35962C8.09208 7.35962 7.35294 6.62081 7.35294 5.74674H6.35294C6.35294 7.18816 7.55498 8.35962 9 8.35962V7.35962ZM7.35294 5.74674C7.35294 4.88154 8.08299 4.16281 9 4.16281V3.16281C7.56407 3.16281 6.35294 4.29646 6.35294 5.74674H7.35294ZM3.82353 16.1744H14.1765V15.1744H3.82353V16.1744ZM3.82353 13.1643H14.1765V12.1643H3.82353V13.1643ZM3.82353 10.1541H7.5V9.15412H3.82353V10.1541Z" fill="#756F82"/>
</svg>
