<svg width="16" height="20" viewBox="0 0 16 20" fill="none" xmlns="http://www.w3.org/2000/svg">
    <path d="M9.71425 1.42871H2.85711C2.40245 1.42871 1.96642 1.60932 1.64492 1.93081C1.32343 2.2523 1.14282 2.68834 1.14282 3.143V16.8573C1.14282 17.3119 1.32343 17.748 1.64492 18.0695C1.96642 18.391 2.40245 18.5716 2.85711 18.5716H13.1428C13.5975 18.5716 14.0335 18.391 14.355 18.0695C14.6765 17.748 14.8571 17.3119 14.8571 16.8573V6.57157M9.71425 1.42871L14.8571 6.57157M9.71425 1.42871V6.57157H14.8571M11.4285 10.8573H4.57139M11.4285 14.2859H4.57139M6.28568 7.42871H4.57139" stroke="#756F82" stroke-linecap="round" stroke-linejoin="round"/>
</svg>
