<svg width="19" height="22" viewBox="0 0 19 22" fill="none" xmlns="http://www.w3.org/2000/svg">
    <path d="M8.09029 3.57941V1.03363M4.63545 1.03363H11.5451M11.0903 13.6191H18M12.229 13.6191V9.89986C12.229 9.60975 11.9935 9.3718 11.7064 9.3718H10.3193C9.7161 9.96505 8.89029 10.3334 7.98384 10.3334C7.07416 10.3334 6.24835 9.96505 5.64513 9.3718H1.03223V4.53775H5.64513C6.24835 3.94449 7.07416 3.57615 7.98384 3.57615C8.89029 3.57615 9.7161 3.94449 10.3193 4.53775H13.0419C15.1419 4.53775 16.858 6.27514 16.858 8.39716V13.6191H12.229ZM14.5451 15.3924C20.7848 22.704 8.09378 22.7866 14.5451 15.3924Z" stroke="#756F82" stroke-linecap="round" stroke-linejoin="round"/>
</svg>
