<?xml version="1.0" encoding="utf-8"?>
<!-- Generator: Adobe Illustrator 26.2.1, SVG Export Plug-In . SVG Version: 6.00 Build 0)  -->
<svg version="1.1" id="Layer_1" xmlns="http://www.w3.org/2000/svg" xmlns:xlink="http://www.w3.org/1999/xlink" x="0px" y="0px"
	 viewBox="0 0 535.8 368.3" style="enable-background:new 0 0 535.8 368.3;" xml:space="preserve">
<style type="text/css">
	.st0{fill:url(#SVGID_1_);}
	.st1{fill:url(#SVGID_00000089569920330209269460000009821716703035558576_);}
	.st2{fill:#051441;}
</style>
<g>
	<g>
		
			<linearGradient id="SVGID_1_" gradientUnits="userSpaceOnUse" x1="267.9" y1="1007.8924" x2="267.9" y2="1137.251" gradientTransform="matrix(1 0 0 1 0 -942)">
			<stop  offset="0" style="stop-color:#7023FF"/>
			<stop  offset="1" style="stop-color:#051441"/>
		</linearGradient>
		<path class="st0" d="M323.1,97.8l-17.5-10.2l-37-21.3c-0.5-0.3-1-0.3-1.5,0L251,75.6l0,0l-2.2,1.3c-0.5,0.3-0.8,0.8-0.8,1.3v18.3
			l-15.6-9c-0.5-0.3-1-0.3-1.5,0L212.6,98l0,0l-0.1,0.1c-0.4,0.3-0.6,0.7-0.6,1.2l0,0v21.1c0,0.5,0.3,1,0.7,1.3l15.6,9l0,0l-15.6,9
			c-0.5,0.3-0.8,0.8-0.8,1.3l0,0v21.1c0,0.5,0.3,1,0.7,1.3l18.4,10.8l0,0c0.1,0.1,0.2,0.1,0.4,0.1c0.1,0,0.2,0,0.2,0h0.1l0,0l0,0
			c0.3,0,0.5-0.1,0.8-0.2l0,0l15.6-9v17.8c0,0.6,0.3,1.1,0.8,1.3l2.2,1.2l16.1,9.3c0.2,0.1,0.5,0.2,0.8,0.2c0.3,0,0.5-0.1,0.8-0.2
			l18.1-10.3c0.5-0.2,0.9-0.8,0.9-1.4v-18.1l15.6,9c0.5,0.3,1,0.3,1.5,0l18.3-10.6c0.5-0.3,0.8-0.8,0.8-1.3v-20.8V99.1
			C323.9,98.5,323.6,98.1,323.1,97.8z M214.8,119.6v-17.7l2.5,1.4l13.4,7.7c0,0,0.1,0.1,0.2,0.1l0,0l15.6,9l-13.3,7.7l-2.1,1.2
			L214.8,119.6z M230.1,170.3l-15.3-8.9v-17.6l4.3,2.5l11.1,6.4v17.6H230.1z M248,161.7l-14.9,8.6v-17.7L248,144V161.7z M248,140.5
			l-16.4,9.5l-9.1-5.3l-6.2-3.6l28.6-16.5l3.1-1.8V140.5z M248,117.6l-6.8-3.9l-8.7-5c-0.1,0-0.1-0.1-0.2-0.1l-4.2-2.4l-11.8-6.9
			l15.3-8.8L248,100V117.6z M284.8,182.1l-15.3,8.8v-36.6l15.3,8.9V182.1z M302.6,128v2.3v0.5v0.6v17.7v3.5V170l-15-8.6v-0.1
			l-1.7-0.9h-0.1l-16.4-9.5l-0.8-0.5c-0.5-0.3-1-0.3-1.5,0s-0.8,0.8-0.8,1.3v2.8v36.4l-15.3-8.8v-18.7v-3.5v-17.6v-3.5v-18.5l0,0
			l0,0v-18.6v-3.5l0.2,0.1c-0.1-0.1-0.2-0.2-0.2-0.3V80.8l34,19.6l0.2,0.1h0.1l0.1,0.1l17.2,9.9V128z M304.1,107.9l-1.7-1l-14.8-8.5
			l0,0l-1.8-1l-33.3-19.2l15.3-8.9l37.7,21.8l13.8,8l-13.8,8L304.1,107.9z M320.9,138.6v5.2v17.4l-15.3,8.9v-17.5v-3.5v-16v-3.5
			v-19.1l15.3-8.8V138.6z"/>
		
			<linearGradient id="SVGID_00000155847168308384195850000003341777107950932893_" gradientUnits="userSpaceOnUse" x1="277.1" y1="1007.8924" x2="277.1" y2="1137.2509" gradientTransform="matrix(1 0 0 1 0 -942)">
			<stop  offset="0" style="stop-color:#7023FF"/>
			<stop  offset="1" style="stop-color:#051441"/>
		</linearGradient>
		<path style="fill:url(#SVGID_00000155847168308384195850000003341777107950932893_);" d="M267.9,107.9c-0.2,0-0.5,0.1-0.7,0.2
			c-0.5,0.3-0.8,0.8-0.8,1.3v1.1v19.4v0.6c0,0.1,0,0.3,0.1,0.4c0,0.1,0.1,0.2,0.1,0.3c0.1,0.1,0.1,0.2,0.2,0.3
			c0,0.1,0.1,0.1,0.2,0.2l0.1,0.1l0,0h0.1c0,0,0,0,0.1,0l0,0l2.1,1.2l16.1,9.3c0.2,0.1,0.5,0.2,0.8,0.2c0.3,0,0.5-0.1,0.8-0.2
			c0.5-0.3,0.8-0.8,0.8-1.3v-0.6v-17.6v-2.9c0-0.2-0.1-0.5-0.2-0.7l0,0c-0.1-0.2-0.3-0.4-0.6-0.5l-18.4-10.6
			C268.4,108,268.1,107.9,267.9,107.9z M284.8,138.6l-13.8-8l13.8-8V138.6z M269.4,112.3l13.6,7.9l-13.6,7.9V112.3z"/>
	</g>
	<g>
		<path class="st2" d="M128.2,254.7c0,10.7-7.8,17.2-20.6,17.2H94.1v16h-5.3v-50.4h18.9C120.6,237.5,128.2,243.9,128.2,254.7z
			 M122.9,254.7c0-8.1-5.3-12.7-15.4-12.7H94.2v25.2h13.4C117.7,267.3,122.9,262.7,122.9,254.7z"/>
		<path class="st2" d="M173.6,250v37.9h-4.9V281c-2.7,4.6-7.6,7.3-13.6,7.3c-9.6,0-16-5.4-16-16.3v-22h5.1v21.5
			c0,8.1,4.2,12.2,11.4,12.2c7.9,0,12.9-5.1,12.9-13.8V250H173.6z"/>
		<path class="st2" d="M250.4,265.9v22h-5.1v-21.5c0-8-4-12.1-10.9-12.1c-7.8,0-12.7,5-12.7,13.7v19.9h-5.1v-21.5
			c0-8-4-12.1-10.9-12.1c-7.7,0-12.7,5-12.7,13.7v19.9h-5.1V250h4.9v6.9c2.7-4.5,7.6-7.2,13.9-7.2c6.3,0,11.2,2.7,13.5,8
			c2.7-4.9,8.1-8,15-8C244.3,249.7,250.4,255,250.4,265.9z"/>
		<path class="st2" d="M299,250v37.9h-4.9v-7.5c-3.1,5.1-8.4,7.8-14.6,7.8c-10.8,0-18.9-7.8-18.9-19.3s8.1-19.2,18.9-19.2
			c6,0,11.2,2.6,14.4,7.5V250C294,250,299,250,299,250z M294,268.9c0-8.9-6-14.8-14-14.8c-8.1,0-14.1,5.9-14.1,14.8
			s6,14.8,14.1,14.8C288,283.7,294,277.8,294,268.9z"/>
		<path class="st2" d="M353.8,254.7c0,10.7-7.8,17.2-20.6,17.2h-13.5v16h-5.3v-50.4h18.9C346,237.5,353.8,243.9,353.8,254.7z
			 M348.5,254.7c0-8.1-5.3-12.7-15.4-12.7h-13.4v25.2H333C343.2,267.3,348.5,262.7,348.5,254.7z"/>
		<path class="st2" d="M398.5,250v37.9h-4.9v-7.5c-3.1,5.1-8.4,7.8-14.6,7.8c-10.8,0-18.9-7.8-18.9-19.3s8.1-19.2,18.9-19.2
			c6,0,11.2,2.6,14.4,7.5V250C393.5,250,398.5,250,398.5,250z M393.5,268.9c0-8.9-6-14.8-14-14.8c-8.1,0-14.1,5.9-14.1,14.8
			s6,14.8,14.1,14.8C387.5,283.7,393.5,277.8,393.5,268.9z"/>
		<path class="st2" d="M447,250v33.3c0,13-6,18.9-17.6,18.9c-6.5,0-12.9-2.1-16.6-5.8l2.6-3.9c3.2,3.2,8.2,5.2,13.8,5.2
			c8.8,0,12.7-4.4,12.7-13.8v-4.4c-2.7,4.4-7.5,6.9-13.4,6.9c-9.6,0-16-5.4-16-16.3V250h5.1v19.7c0,8.1,4.2,12.2,11.4,12.2
			c7.9,0,12.9-5.1,12.9-13.8V250H447z"/>
	</g>
</g>
</svg>
