<svg width="20" height="20" viewBox="0 0 20 20" fill="none" xmlns="http://www.w3.org/2000/svg">
    <path d="M7.50561 7.42856C7.70713 6.8557 8.10488 6.37265 8.62843 6.06496C9.15197 5.75727 9.76752 5.64479 10.366 5.74745C10.9646 5.85012 11.5075 6.16129 11.8985 6.62587C12.2896 7.09044 12.5037 7.67843 12.5028 8.2857C12.5028 9.99999 9.93132 10.8571 9.93132 10.8571V11.7992M18.5713 9.99999C18.5713 14.7339 14.7338 18.5714 9.9999 18.5714C5.26603 18.5714 1.42847 14.7339 1.42847 9.99999C1.42847 5.26612 5.26603 1.42856 9.9999 1.42856C14.7338 1.42856 18.5713 5.26612 18.5713 9.99999ZM10.857 14.2857C10.857 14.7591 10.4733 15.1428 9.9999 15.1428C9.52651 15.1428 9.14275 14.7591 9.14275 14.2857C9.14275 13.8123 9.52651 13.4286 9.9999 13.4286C10.4733 13.4286 10.857 13.8123 10.857 14.2857Z" stroke="#756F82" stroke-linecap="round" stroke-linejoin="round"/>
</svg>
