<svg width="15" height="4" viewBox="0 0 15 4" fill="none" xmlns="http://www.w3.org/2000/svg">
    <path d="M7.5989 3.05797C8.07229 3.05797 8.45605 2.67422 8.45605 2.20083C8.45605 1.72744 8.07229 1.34369 7.5989 1.34369C7.12552 1.34369 6.74176 1.72744 6.74176 2.20083C6.74176 2.67422 7.12552 3.05797 7.5989 3.05797Z" fill="#756F82"/>
    <path d="M13.5989 3.05797C14.0723 3.05797 14.456 2.67422 14.456 2.20083C14.456 1.72744 14.0723 1.34369 13.5989 1.34369C13.1255 1.34369 12.7418 1.72744 12.7418 2.20083C12.7418 2.67422 13.1255 3.05797 13.5989 3.05797Z" fill="#756F82"/>
    <path d="M1.5989 3.05797C2.07229 3.05797 2.45605 2.67422 2.45605 2.20083C2.45605 1.72744 2.07229 1.34369 1.5989 1.34369C1.12552 1.34369 0.74176 1.72744 0.74176 2.20083C0.74176 2.67422 1.12552 3.05797 1.5989 3.05797Z" fill="#756F82"/>
    <path d="M7.5989 3.05797C8.07229 3.05797 8.45605 2.67422 8.45605 2.20083C8.45605 1.72744 8.07229 1.34369 7.5989 1.34369C7.12552 1.34369 6.74176 1.72744 6.74176 2.20083C6.74176 2.67422 7.12552 3.05797 7.5989 3.05797Z" stroke="#756F82" stroke-linecap="round" stroke-linejoin="round"/>
    <path d="M13.5989 3.05797C14.0723 3.05797 14.456 2.67422 14.456 2.20083C14.456 1.72744 14.0723 1.34369 13.5989 1.34369C13.1255 1.34369 12.7418 1.72744 12.7418 2.20083C12.7418 2.67422 13.1255 3.05797 13.5989 3.05797Z" stroke="#756F82" stroke-linecap="round" stroke-linejoin="round"/>
    <path d="M1.5989 3.05797C2.07229 3.05797 2.45605 2.67422 2.45605 2.20083C2.45605 1.72744 2.07229 1.34369 1.5989 1.34369C1.12552 1.34369 0.74176 1.72744 0.74176 2.20083C0.74176 2.67422 1.12552 3.05797 1.5989 3.05797Z" stroke="#756F82" stroke-linecap="round" stroke-linejoin="round"/>
</svg>
