<svg width="22" height="18" viewBox="0 0 22 18" fill="none" xmlns="http://www.w3.org/2000/svg">
    <path d="M19.958 11.8387V14.9355C19.958 16.0892 19.0897 17 18.0188 17H2.96816C1.89725 17 1 16.0892 1 14.9355V3.06452C1 1.94118 1.89725 1 2.96816 1H18.0188C19.0897 1 19.958 1.94118 19.958 3.06452V6.16129M13.0984 6.13093H19.6975C20.4211 6.13093 21 6.73814 21 7.49715V10.5028C21 11.2619 20.4211 11.8691 19.6975 11.8691H13.0984C12.4038 11.8691 11.7959 11.2619 11.7959 10.5028V7.49715C11.7959 6.73814 12.4038 6.13093 13.0984 6.13093ZM14.4588 8.13472C14.9219 8.13472 15.2981 8.52941 15.2981 9.01518C15.2981 9.47059 14.9219 9.86527 14.4588 9.86527C13.9957 9.86527 13.6194 9.47059 13.6194 9.01518C13.6194 8.52941 13.9957 8.13472 14.4588 8.13472Z" stroke="#756F82"/>
</svg>
